<?xml version="1.0" encoding="UTF-8"?>
<svg xmlns="http://www.w3.org/2000/svg" xmlns:xlink="http://www.w3.org/1999/xlink" viewBox="0 0 100 100" width="100px" height="100px">
<g id="surface38549983">
<path style=" stroke:none;fill-rule:nonzero;fill:rgb(10.196079%,13.725491%,49.411765%);fill-opacity:1;" d="M 30 2 C 28.894531 2 28 2.894531 28 4 C 28 5.105469 28.894531 6 30 6 C 31.105469 6 32 5.105469 32 4 C 32 2.894531 31.105469 2 30 2 Z M 56 4 C 53.789062 4 52 5.789062 52 8 C 52 10.210938 53.789062 12 56 12 C 58.210938 12 60 10.210938 60 8 C 60 5.789062 58.210938 4 56 4 Z M 44 12 C 35.085938 12 27.421875 17.753906 24.878906 26.164062 C 17.546875 27.195312 12 33.445312 12 41 C 12 43.382812 12.566406 45.714844 13.648438 47.828125 C 11.285156 50.6875 10 54.242188 10 58 C 10 65.347656 15.042969 71.691406 22.011719 73.484375 C 22.003906 73.660156 22 73.828125 22 74 C 22 82.820312 29.179688 90 38 90 C 41.71875 90 45.21875 88.746094 48.058594 86.429688 C 50.457031 88.722656 53.617188 90 57 90 C 63.0625 90 68.273438 85.742188 69.640625 79.996094 C 69.761719 80 69.878906 80 70 80 C 79.925781 80 88 71.925781 88 62 C 88 58.523438 87.027344 55.210938 85.167969 52.320312 C 86.984375 50.3125 88 47.730469 88 45 C 88 39.941406 84.554688 35.652344 79.828125 34.402344 C 79.941406 33.59375 80 32.792969 80 32 C 80 22.074219 71.925781 14 62 14 C 59.617188 14 57.304688 14.464844 55.105469 15.386719 C 51.804688 13.167969 47.988281 12 44 12 Z M 19 16 C 17.34375 16 16 17.34375 16 19 C 16 20.65625 17.34375 22 19 22 C 20.65625 22 22 20.65625 22 19 C 22 17.34375 20.65625 16 19 16 Z M 88 26 C 85.789062 26 84 27.789062 84 30 C 84 32.210938 85.789062 34 88 34 C 90.210938 34 92 32.210938 92 30 C 92 27.789062 90.210938 26 88 26 Z M 53.882812 30 C 56.445312 30 58.609375 31.621094 59.46875 33.882812 C 59.507812 33.984375 59.625 34.011719 59.703125 33.941406 C 61.136719 32.664062 63.035156 32.007812 65.132812 32.007812 C 67.632812 32.007812 70 33.746094 70 37.746094 C 70 42.246094 67.25 46.246094 63 55.996094 C 62.589844 56.941406 62 58.605469 62 59.996094 C 62 61.75 63 64 67 64 C 68.65625 64 70 65.34375 70 67 C 70 68.65625 68.65625 70 67 70 C 54.75 70 54 63.5 54 62 C 54 60.257812 54.148438 59.097656 54.625 57.75 C 54.734375 57.445312 61.769531 42.941406 61.832031 42.800781 C 61.949219 42.53125 62.003906 42.253906 62 41.976562 C 61.988281 41.214844 61.542969 40.492188 60.800781 40.167969 C 59.789062 39.722656 58.609375 40.183594 58.167969 41.195312 C 58.167969 41.195312 49.078125 61.050781 48.710938 61.894531 C 47.941406 63.667969 45.878906 64.480469 44.105469 63.707031 C 42.777344 63.128906 41.980469 61.824219 41.996094 60.460938 C 42 60.007812 42.097656 59.546875 42.289062 59.101562 C 42.679688 58.199219 47.847656 44.902344 47.855469 44.882812 C 47.945312 44.648438 47.996094 44.390625 47.996094 44.121094 C 48 42.949219 47.050781 42 45.875 42 C 44.964844 42 44.1875 42.574219 43.886719 43.378906 C 42.402344 47.265625 36.699219 62.386719 36.144531 64.011719 C 35.304688 66.46875 32.972656 67.980469 30.433594 68 C 29.730469 68.007812 29.011719 67.917969 28.304688 67.679688 C 25.042969 66.566406 23.265625 63.125 24.335938 59.988281 C 25.125 57.675781 30.726562 39.632812 31.449219 37.238281 C 32.402344 34.09375 34.628906 32 39.128906 32 C 42.378906 32 44.851562 34 46.851562 34 C 48.382812 34 49.882812 30 53.882812 30 Z M 98 40 C 96.894531 40 96 40.894531 96 42 C 96 43.105469 96.894531 44 98 44 C 99.105469 44 100 43.105469 100 42 C 100 40.894531 99.105469 40 98 40 Z M 4 42 C 1.789062 42 0 43.789062 0 46 C 0 48.210938 1.789062 50 4 50 C 6.210938 50 8 48.210938 8 46 C 8 43.789062 6.210938 42 4 42 Z M 93 50 C 91.34375 50 90 51.34375 90 53 C 90 54.65625 91.34375 56 93 56 C 94.65625 56 96 54.65625 96 53 C 96 51.34375 94.65625 50 93 50 Z M 16 78 C 14.894531 78 14 78.894531 14 80 C 14 81.105469 14.894531 82 16 82 C 17.105469 82 18 81.105469 18 80 C 18 78.894531 17.105469 78 16 78 Z M 76 84 C 73.789062 84 72 85.789062 72 88 C 72 90.210938 73.789062 92 76 92 C 78.210938 92 80 90.210938 80 88 C 80 85.789062 78.210938 84 76 84 Z M 47 92 C 45.34375 92 44 93.34375 44 95 C 44 96.65625 45.34375 98 47 98 C 48.65625 98 50 96.65625 50 95 C 50 93.34375 48.65625 92 47 92 Z M 47 92 "/>
</g>
</svg>
