<?xml version="1.0" encoding="UTF-8"?>
<svg xmlns="http://www.w3.org/2000/svg" xmlns:xlink="http://www.w3.org/1999/xlink" viewBox="0 0 100 100" width="100px" height="100px">
<g id="surface38553444">
<path style=" stroke:none;fill-rule:nonzero;fill:rgb(100%,100%,100%);fill-opacity:1;" d="M 30 2 C 28.894531 2 28 2.894531 28 4 C 28 5.105469 28.894531 6 30 6 C 31.105469 6 32 5.105469 32 4 C 32 2.894531 31.105469 2 30 2 Z M 56 4 C 53.789062 4 52 5.789062 52 8 C 52 10.210938 53.789062 12 56 12 C 58.210938 12 60 10.210938 60 8 C 60 5.789062 58.210938 4 56 4 Z M 44 12 C 34.964844 12 27.476562 18.097656 25.011719 26.355469 C 17.71875 27.363281 12 33.4375 12 41 C 12 43.523438 12.746094 45.839844 13.851562 47.929688 C 11.554688 50.699219 10 54.128906 10 58 C 10 65.421875 15.183594 71.464844 22.0625 73.253906 C 22.046875 73.507812 22 73.738281 22 74 C 22 82.8125 29.1875 90 38 90 C 41.90625 90 45.324219 88.378906 48.101562 86.046875 C 50.445312 88.351562 53.460938 90 57 90 C 63.109375 90 68.042969 85.664062 69.417969 79.960938 C 69.617188 79.96875 69.792969 80 70 80 C 79.917969 80 88 71.917969 88 62 C 88 58.367188 86.746094 55.085938 84.886719 52.253906 C 86.6875 50.304688 88 47.871094 88 45 C 88 39.894531 84.394531 35.789062 79.660156 34.570312 C 79.789062 33.71875 80 32.898438 80 32 C 80 22.082031 71.917969 14 62 14 C 59.550781 14 57.316406 14.722656 55.191406 15.609375 C 51.988281 13.414062 48.179688 12 44 12 Z M 19 16 C 17.34375 16 16 17.34375 16 19 C 16 20.65625 17.34375 22 19 22 C 20.65625 22 22 20.65625 22 19 C 22 17.34375 20.65625 16 19 16 Z M 44 16 C 47.644531 16 50.976562 17.226562 53.671875 19.277344 C 54.277344 19.738281 55.09375 19.816406 55.773438 19.476562 C 57.660156 18.535156 59.761719 18 62 18 C 69.753906 18 76 24.246094 76 32 C 76 33.210938 75.828125 34.390625 75.527344 35.539062 C 75.375 36.121094 75.492188 36.742188 75.847656 37.226562 C 76.203125 37.710938 76.757812 38.011719 77.359375 38.042969 C 81.074219 38.234375 84 41.238281 84 45 C 84 47.242188 82.941406 49.1875 81.289062 50.484375 C 80.871094 50.8125 80.601562 51.296875 80.539062 51.824219 C 80.476562 52.351562 80.625 52.882812 80.957031 53.300781 C 82.863281 55.695312 84 58.703125 84 62 C 84 69.753906 77.753906 76 70 76 C 69.421875 76 68.828125 75.949219 68.203125 75.871094 C 67.660156 75.804688 67.113281 75.960938 66.691406 76.308594 C 66.265625 76.652344 66.003906 77.15625 65.960938 77.703125 C 65.605469 82.355469 61.757812 86 57 86 C 54.039062 86 51.441406 84.574219 49.796875 82.375 C 49.441406 81.902344 48.898438 81.609375 48.308594 81.578125 C 47.71875 81.542969 47.144531 81.773438 46.738281 82.203125 C 44.542969 84.539062 41.457031 86 38 86 C 31.347656 86 26 80.652344 26 74 C 26 73.40625 26.058594 72.800781 26.15625 72.171875 C 26.238281 71.640625 26.101562 71.097656 25.777344 70.664062 C 25.457031 70.234375 24.972656 69.953125 24.4375 69.882812 C 18.546875 69.117188 14 64.117188 14 58 C 14 54.667969 15.34375 51.683594 17.523438 49.507812 C 18.195312 48.839844 18.304688 47.789062 17.785156 46.996094 C 16.65625 45.265625 16 43.222656 16 41 C 16 35.058594 20.664062 30.273438 26.539062 30.027344 C 27.441406 29.988281 28.207031 29.351562 28.40625 28.46875 C 30.015625 21.335938 36.359375 16 44 16 Z M 88 26 C 85.789062 26 84 27.789062 84 30 C 84 32.210938 85.789062 34 88 34 C 90.210938 34 92 32.210938 92 30 C 92 27.789062 90.210938 26 88 26 Z M 53.882812 30 C 49.882812 30 48.382812 34 46.851562 34 C 44.851562 34 42.382812 32 39.128906 32 C 34.628906 32 32.402344 34.09375 31.449219 37.238281 C 30.722656 39.632812 25.125 57.671875 24.335938 59.984375 C 23.269531 63.121094 25.042969 66.566406 28.304688 67.679688 C 28.976562 67.910156 29.65625 67.988281 30.328125 67.996094 C 32.90625 68.019531 35.296875 66.503906 36.144531 64.011719 C 36.699219 62.386719 42.402344 47.261719 43.886719 43.375 C 44.1875 42.574219 44.964844 42 45.875 42 C 47.050781 42 48 42.949219 48 44.125 C 48 44.394531 47.949219 44.648438 47.859375 44.886719 C 47.851562 44.902344 42.683594 58.203125 42.292969 59.105469 C 42.101562 59.550781 42.007812 60.007812 42.003906 60.464844 C 41.988281 61.828125 42.78125 63.132812 44.109375 63.710938 C 45.882812 64.480469 47.941406 63.671875 48.714844 61.898438 C 49.082031 61.058594 58.171875 41.199219 58.171875 41.199219 C 58.617188 40.1875 59.792969 39.726562 60.804688 40.171875 C 61.546875 40.496094 61.992188 41.21875 62.003906 41.980469 C 62.007812 42.257812 61.953125 42.535156 61.835938 42.804688 C 61.773438 42.945312 54.738281 57.449219 54.628906 57.753906 C 54.148438 59.097656 54 60.261719 54 62 C 54 63.5 54.75 70 67 70 C 68.65625 70 70 68.65625 70 67 C 70 65.34375 68.65625 64 67 64 C 63 64 62 61.75 62 60 C 62 58.609375 62.589844 56.945312 63 56 C 67.25 46.25 70 42.25 70 37.75 C 70 33.75 67.628906 32.011719 65.132812 32.011719 C 63.035156 32.011719 61.136719 32.664062 59.703125 33.941406 C 59.625 34.011719 59.507812 33.984375 59.46875 33.882812 C 58.609375 31.617188 56.445312 30 53.882812 30 Z M 98 40 C 96.894531 40 96 40.894531 96 42 C 96 43.105469 96.894531 44 98 44 C 99.105469 44 100 43.105469 100 42 C 100 40.894531 99.105469 40 98 40 Z M 4 42 C 1.789062 42 0 43.789062 0 46 C 0 48.210938 1.789062 50 4 50 C 6.210938 50 8 48.210938 8 46 C 8 43.789062 6.210938 42 4 42 Z M 93 50 C 91.34375 50 90 51.34375 90 53 C 90 54.65625 91.34375 56 93 56 C 94.65625 56 96 54.65625 96 53 C 96 51.34375 94.65625 50 93 50 Z M 16 78 C 14.894531 78 14 78.894531 14 80 C 14 81.105469 14.894531 82 16 82 C 17.105469 82 18 81.105469 18 80 C 18 78.894531 17.105469 78 16 78 Z M 76 84 C 73.789062 84 72 85.789062 72 88 C 72 90.210938 73.789062 92 76 92 C 78.210938 92 80 90.210938 80 88 C 80 85.789062 78.210938 84 76 84 Z M 47 92 C 45.34375 92 44 93.34375 44 95 C 44 96.65625 45.34375 98 47 98 C 48.65625 98 50 96.65625 50 95 C 50 93.34375 48.65625 92 47 92 Z M 47 92 "/>
</g>
</svg>
